<?xml version="1.0" standalone="no"?>
<!DOCTYPE svg PUBLIC "-//W3C//DTD SVG 20010904//EN"
 "http://www.w3.org/TR/2001/REC-SVG-20010904/DTD/svg10.dtd">
<svg version="1.0" xmlns="http://www.w3.org/2000/svg"
 width="330.000000pt" height="330.000000pt" viewBox="0 0 330.000000 330.000000"
 preserveAspectRatio="xMidYMid meet">
<metadata>
Created by potrace 1.11, written by Peter Selinger 2001-2013
</metadata>
<g transform="translate(0.000000,330.000000) scale(0.100000,-0.100000)"
fill="#000000" stroke="none">
<path d="M0 1650 l0 -1650 1650 0 1650 0 0 1650 0 1650 -1650 0 -1650 0 0
-1650z m1271 1154 c168 -50 272 -185 272 -354 0 -96 -28 -172 -89 -239 -186
-207 -529 -161 -652 88 -24 49 -27 68 -27 151 0 83 3 102 27 151 84 171 284
258 469 203z m830 0 c168 -50 272 -185 272 -354 0 -96 -28 -172 -89 -239 -186
-207 -529 -161 -652 88 -24 49 -27 68 -27 151 0 83 3 102 27 151 84 171 284
258 469 203z m-1531 -18 c93 -35 142 -115 120 -195 -10 -36 -58 -91 -81 -91
-20 0 -7 -16 27 -35 108 -58 120 -215 23 -299 -70 -59 -110 -68 -326 -74
l-193 -4 0 362 0 362 193 -4 c150 -4 202 -8 237 -22z m2100 -133 l0 -158 105
158 105 157 121 0 c97 0 118 -3 112 -13 -4 -8 -56 -81 -115 -164 -60 -83 -108
-153 -108 -157 0 -4 53 -86 118 -184 65 -97 122 -183 126 -189 6 -10 -21 -13
-118 -13 l-125 0 -110 177 -111 177 0 -177 0 -177 -105 0 -105 0 0 360 0 360
105 0 105 0 0 -157z m-1025 -649 c63 -22 119 -78 133 -136 17 -67 1 -113 -63
-175 l-53 -51 27 -26 c15 -14 30 -26 33 -26 3 0 18 29 33 65 l28 65 93 0 93 0
-61 -136 -61 -135 79 -80 79 -79 -121 0 c-106 0 -123 2 -138 19 -17 19 -18 19
-64 -2 -38 -18 -66 -22 -148 -22 -92 0 -105 3 -159 30 -146 75 -168 234 -46
336 l39 33 -25 37 c-75 113 -16 246 127 290 43 13 125 10 175 -7z m-762 -809
l47 -17 0 -99 c0 -54 -2 -99 -5 -99 -3 0 -22 8 -43 19 -120 61 -264 43 -323
-41 -18 -24 -24 -49 -27 -98 -4 -85 22 -133 92 -169 80 -41 159 -35 299 24 15
6 17 -1 17 -88 0 -64 -4 -98 -12 -104 -26 -20 -85 -34 -168 -40 -187 -12 -339
68 -408 215 -23 49 -27 70 -27 152 0 114 18 163 91 241 91 96 183 131 329 125
50 -2 111 -12 138 -21z m717 -312 c74 -181 140 -343 147 -360 l13 -33 -113 0
-112 0 -25 73 -25 72 -124 0 -125 0 -25 -72 -26 -73 -108 0 -107 0 13 33 c7
17 73 179 147 360 l133 327 102 0 102 0 133 -327z m710 237 l0 -90 -140 0
-140 0 0 -45 0 -44 118 -3 117 -3 3 -82 3 -83 -121 0 -120 0 0 -140 0 -140
-105 0 -105 0 0 360 0 360 245 0 245 0 0 -90z m568 3 l-3 -88 -132 -3 -133 -3
0 -39 0 -40 115 0 116 0 -3 -82 -3 -83 -112 -3 -113 -3 0 -54 0 -54 138 -3
137 -3 3 -88 3 -87 -246 0 -245 0 0 360 0 360 240 0 241 0 -3 -87z"/>
<path d="M1090 2623 c-127 -48 -150 -245 -38 -324 49 -36 151 -39 198 -7 117
80 118 237 1 315 -26 18 -47 23 -90 22 -31 0 -63 -3 -71 -6z"/>
<path d="M1920 2623 c-127 -48 -150 -245 -38 -324 49 -36 151 -39 198 -7 117
80 118 237 1 315 -26 18 -47 23 -90 22 -31 0 -63 -3 -71 -6z"/>
<path d="M350 2580 c0 -59 1 -60 28 -60 38 0 94 17 104 32 13 22 9 54 -10 71
-12 11 -36 17 -70 17 l-52 0 0 -60z"/>
<path d="M350 2326 l0 -66 65 0 c72 0 105 20 105 63 0 40 -34 61 -106 65 l-64
4 0 -66z"/>
<path d="M1523 1853 c-17 -6 -16 -53 1 -76 12 -15 18 -16 35 -8 11 7 24 23 27
36 10 41 -22 65 -63 48z"/>
<path d="M1460 1541 c-16 -30 -12 -50 15 -76 25 -26 76 -33 105 -15 12 8 6 18
-35 60 -54 55 -69 60 -85 31z"/>
<path d="M1356 970 c-3 -8 -18 -52 -34 -97 l-29 -83 68 0 c38 0 69 1 69 3 -1
1 -16 45 -34 97 -20 54 -37 89 -40 80z"/>
</g>
</svg>
